<svg width="288" height="33" viewBox="0 0 288 33" fill="none" xmlns="http://www.w3.org/2000/svg">
<path fill-rule="evenodd" clip-rule="evenodd" d="M168.115 0C158.833 0 151.407 7.33333 151.407 16.5C151.407 25.6667 158.833 33 168.115 33C177.397 33 184.823 25.6667 184.823 16.5C184.823 7.33333 177.397 0 168.115 0ZM168.115 12.8333C166.09 12.8333 164.233 14.5 164.233 16.6667C164.233 18.6667 165.921 20.5 168.115 20.5C170.14 20.5 171.997 18.8333 171.997 16.6667C171.828 14.5 170.14 12.8333 168.115 12.8333ZM168.115 1C170.815 2.16667 173.853 3.5 176.216 5.16667C178.579 6.83333 180.941 9.5 183.135 11.6667C182.798 14.6667 182.46 18 181.448 20.8333C180.604 23.6667 178.916 26.5 177.397 29.1667C174.528 29.6667 171.153 30.3333 168.115 30.3333C165.077 30.3333 161.871 29.6667 158.833 29.1667C157.483 26.6667 155.626 23.6667 154.782 21C153.938 18.1667 153.432 14.8333 153.095 11.8333C154.951 9.83333 157.314 7 159.677 5.33333C162.039 3.5 165.415 2.16667 168.115 1Z" fill="url(#paint0_linear)"/>
<path d="M113.243 26.8643H98.3912C95.0159 26.8643 93.497 24.1976 93.497 21.6976V11.3643C93.497 8.69763 95.5222 5.8643 98.7288 5.8643H110.205C113.412 5.8643 115.099 8.8643 115.099 11.6976C115.099 14.531 113.58 17.3643 110.205 17.3643H95.5222V21.531C95.5222 23.031 96.1973 24.8643 98.2225 24.8643H113.074C113.58 24.8643 114.087 25.3643 114.087 25.8643C114.424 26.531 113.918 26.8643 113.243 26.8643ZM95.691 15.531H110.374C112.23 15.531 113.074 13.6976 113.074 11.8643C113.074 10.031 112.061 8.03097 110.374 8.03097H98.8975C97.2099 8.03097 95.691 9.53097 95.691 11.531V15.531ZM85.2274 26.8643H70.3759C67.0005 26.8643 65.4816 24.1976 65.4816 21.6976V11.3643C65.4816 8.69763 67.5068 5.8643 70.7134 5.8643H82.1896C85.3962 5.8643 87.0838 8.8643 87.0838 11.6976C87.0838 14.531 85.5649 17.3643 82.1896 17.3643H67.5068V21.531C67.5068 23.031 68.1819 24.8643 70.2071 24.8643H85.0586C85.5649 24.8643 86.0712 25.3643 86.0712 25.8643C86.24 26.531 85.7337 26.8643 85.2274 26.8643ZM67.5068 15.531H82.1896C84.046 15.531 84.8899 13.6976 84.8899 11.8643C84.8899 10.031 83.8773 8.03097 82.1896 8.03097H70.7134C69.0257 8.03097 67.5068 9.53097 67.5068 11.531V15.531ZM142.102 26.8643H124.213C122.862 26.8643 121.681 26.031 121.344 24.6976C121.006 23.3643 121.344 22.1976 122.525 21.3643C125.394 19.531 128.263 17.6976 131.132 15.6976C134.339 13.531 137.545 11.531 140.752 9.3643C141.258 9.03097 141.258 8.69763 141.089 8.3643C141.089 8.19763 140.752 7.69763 140.077 7.69763H122.525C122.019 7.69763 121.512 7.19763 121.512 6.69763C121.512 6.19763 122.019 5.69763 122.525 5.69763H139.908C141.258 5.69763 142.439 6.53097 142.777 7.8643C143.115 9.19763 142.777 10.3643 141.596 11.1976C139.064 13.031 136.364 14.8643 133.664 16.531C130.288 18.6976 126.913 20.8643 123.706 23.031C123.2 23.3643 123.2 23.8643 123.2 24.1976C123.2 24.3643 123.538 24.8643 124.213 24.8643H141.933C142.439 24.8643 142.946 25.3643 142.946 25.8643C142.946 26.531 142.608 26.8643 142.102 26.8643ZM53.8367 26.8643H38.6477C37.8038 26.8643 37.2975 26.1976 37.2975 25.531V7.3643C37.2975 6.53097 37.9726 6.03097 38.6477 6.03097H53.8367C56.1995 6.03097 58.5622 8.3643 58.5622 10.6976V22.531C58.5622 24.6976 56.3682 26.8643 53.8367 26.8643ZM39.3227 7.8643V24.8643C41.6855 24.8643 43.8794 24.8643 46.2422 24.8643C48.7737 24.8643 51.3052 24.8643 53.8367 24.8643C55.1868 24.8643 56.537 23.531 56.537 22.1976V10.531C56.537 9.19763 55.1868 7.8643 53.8367 7.8643H39.3227ZM20.4208 26.8643C19.9145 26.8643 19.4082 26.3643 19.4082 25.8643V17.3643H2.02521V25.8643C2.02521 26.3643 1.5189 26.8643 1.0126 26.8643C0.506301 26.8643 0 26.531 0 25.8643V6.8643C0 6.3643 0.506301 5.8643 1.0126 5.8643C1.5189 5.8643 2.02521 6.3643 2.02521 6.8643V15.3643H19.4082V6.8643C19.4082 6.3643 19.9145 5.8643 20.4208 5.8643C20.9271 5.8643 21.4334 6.3643 21.4334 6.8643V25.8643C21.4334 26.531 21.0959 26.8643 20.4208 26.8643ZM29.5342 26.8643C29.0279 26.8643 28.5216 26.3643 28.5216 25.8643V6.8643C28.5216 6.3643 29.0279 5.8643 29.5342 5.8643C30.0405 5.8643 30.5469 6.19763 30.5469 6.8643V26.031C30.5469 26.531 30.0405 26.8643 29.5342 26.8643Z" fill="#0E3059"/>
<path d="M219.966 4.004V14H227.554V12.152H222.164V9.702H227.008V7.994H222.164V5.852H227.442V4.004H219.966ZM228.834 6.762V14H230.822V10.206C230.822 9.46867 230.943 8.94133 231.186 8.624C231.429 8.29733 231.821 8.134 232.362 8.134C232.838 8.134 233.169 8.28333 233.356 8.582C233.543 8.87133 233.636 9.31467 233.636 9.912V14H235.624V9.548C235.624 9.1 235.582 8.694 235.498 8.33C235.423 7.95667 235.288 7.644 235.092 7.392C234.896 7.13067 234.625 6.93 234.28 6.79C233.944 6.64067 233.51 6.566 232.978 6.566C232.558 6.566 232.147 6.664 231.746 6.86C231.345 7.04667 231.018 7.35 230.766 7.77H230.724V6.762H228.834ZM239.653 6.762V4.592H237.665V6.762H236.461V8.092H237.665V12.362C237.665 12.726 237.726 13.02 237.847 13.244C237.968 13.468 238.132 13.6407 238.337 13.762C238.552 13.8833 238.794 13.9627 239.065 14C239.345 14.0467 239.639 14.07 239.947 14.07C240.143 14.07 240.344 14.0653 240.549 14.056C240.754 14.0467 240.941 14.028 241.109 14V12.46C241.016 12.4787 240.918 12.4927 240.815 12.502C240.712 12.5113 240.605 12.516 240.493 12.516C240.157 12.516 239.933 12.46 239.821 12.348C239.709 12.236 239.653 12.012 239.653 11.676V8.092H241.109V6.762H239.653ZM246.927 9.604H243.693C243.702 9.464 243.73 9.30533 243.777 9.128C243.833 8.95067 243.921 8.78267 244.043 8.624C244.173 8.46533 244.341 8.33467 244.547 8.232C244.761 8.12 245.027 8.064 245.345 8.064C245.83 8.064 246.189 8.19467 246.423 8.456C246.665 8.71733 246.833 9.1 246.927 9.604ZM243.693 10.864H248.915C248.952 10.304 248.905 9.76733 248.775 9.254C248.644 8.74067 248.429 8.28333 248.131 7.882C247.841 7.48067 247.468 7.16333 247.011 6.93C246.553 6.68733 246.017 6.566 245.401 6.566C244.85 6.566 244.346 6.664 243.889 6.86C243.441 7.056 243.053 7.32667 242.727 7.672C242.4 8.008 242.148 8.40933 241.971 8.876C241.793 9.34267 241.705 9.84667 241.705 10.388C241.705 10.948 241.789 11.4613 241.957 11.928C242.134 12.3947 242.381 12.796 242.699 13.132C243.016 13.468 243.403 13.7293 243.861 13.916C244.318 14.0933 244.831 14.182 245.401 14.182C246.222 14.182 246.922 13.9953 247.501 13.622C248.079 13.2487 248.509 12.628 248.789 11.76H247.039C246.973 11.984 246.796 12.1987 246.507 12.404C246.217 12.6 245.872 12.698 245.471 12.698C244.911 12.698 244.481 12.5533 244.183 12.264C243.884 11.9747 243.721 11.508 243.693 10.864ZM250.094 6.762V14H252.082V10.738C252.082 10.4113 252.115 10.108 252.18 9.828C252.245 9.548 252.353 9.30533 252.502 9.1C252.661 8.88533 252.866 8.71733 253.118 8.596C253.37 8.47467 253.678 8.414 254.042 8.414C254.163 8.414 254.289 8.42333 254.42 8.442C254.551 8.45133 254.663 8.46533 254.756 8.484V6.636C254.597 6.58933 254.453 6.566 254.322 6.566C254.07 6.566 253.827 6.60333 253.594 6.678C253.361 6.75267 253.141 6.86 252.936 7C252.731 7.13067 252.549 7.294 252.39 7.49C252.231 7.67667 252.105 7.882 252.012 8.106H251.984V6.762H250.094ZM259.189 12.698C258.872 12.698 258.601 12.6327 258.377 12.502C258.153 12.3713 257.971 12.2033 257.831 11.998C257.701 11.7833 257.603 11.536 257.537 11.256C257.481 10.976 257.453 10.6913 257.453 10.402C257.453 10.1033 257.481 9.814 257.537 9.534C257.593 9.254 257.687 9.00667 257.817 8.792C257.957 8.57733 258.135 8.40467 258.349 8.274C258.573 8.134 258.849 8.064 259.175 8.064C259.493 8.064 259.759 8.134 259.973 8.274C260.197 8.40467 260.379 8.582 260.519 8.806C260.659 9.02067 260.757 9.268 260.813 9.548C260.879 9.828 260.911 10.1127 260.911 10.402C260.911 10.6913 260.883 10.976 260.827 11.256C260.771 11.536 260.673 11.7833 260.533 11.998C260.403 12.2033 260.225 12.3713 260.001 12.502C259.787 12.6327 259.516 12.698 259.189 12.698ZM255.535 6.762V16.534H257.523V13.104H257.551C257.794 13.4587 258.102 13.7293 258.475 13.916C258.858 14.0933 259.273 14.182 259.721 14.182C260.253 14.182 260.715 14.0793 261.107 13.874C261.509 13.6687 261.84 13.3933 262.101 13.048C262.372 12.7027 262.573 12.306 262.703 11.858C262.834 11.41 262.899 10.9433 262.899 10.458C262.899 9.94467 262.834 9.45467 262.703 8.988C262.573 8.512 262.372 8.09667 262.101 7.742C261.831 7.38733 261.49 7.10267 261.079 6.888C260.669 6.67333 260.179 6.566 259.609 6.566C259.161 6.566 258.751 6.65467 258.377 6.832C258.004 7.00933 257.696 7.294 257.453 7.686H257.425V6.762H255.535ZM264.094 6.762V14H266.082V10.738C266.082 10.4113 266.115 10.108 266.18 9.828C266.245 9.548 266.353 9.30533 266.502 9.1C266.661 8.88533 266.866 8.71733 267.118 8.596C267.37 8.47467 267.678 8.414 268.042 8.414C268.163 8.414 268.289 8.42333 268.42 8.442C268.551 8.45133 268.663 8.46533 268.756 8.484V6.636C268.597 6.58933 268.453 6.566 268.322 6.566C268.07 6.566 267.827 6.60333 267.594 6.678C267.361 6.75267 267.141 6.86 266.936 7C266.731 7.13067 266.549 7.294 266.39 7.49C266.231 7.67667 266.105 7.882 266.012 8.106H265.984V6.762H264.094ZM271.579 5.642V4.004H269.591V5.642H271.579ZM269.591 6.762V14H271.579V6.762H269.591ZM274.685 11.648H272.795C272.813 12.1333 272.921 12.5393 273.117 12.866C273.322 13.1833 273.579 13.44 273.887 13.636C274.204 13.832 274.563 13.972 274.965 14.056C275.366 14.14 275.777 14.182 276.197 14.182C276.607 14.182 277.009 14.14 277.401 14.056C277.802 13.9813 278.157 13.846 278.465 13.65C278.773 13.454 279.02 13.1973 279.207 12.88C279.403 12.5533 279.501 12.152 279.501 11.676C279.501 11.34 279.435 11.06 279.305 10.836C279.174 10.6027 279.001 10.4113 278.787 10.262C278.572 10.1033 278.325 9.97733 278.045 9.884C277.774 9.79067 277.494 9.71133 277.205 9.646C276.925 9.58067 276.649 9.52 276.379 9.464C276.108 9.408 275.865 9.34733 275.651 9.282C275.445 9.20733 275.277 9.114 275.147 9.002C275.016 8.89 274.951 8.74533 274.951 8.568C274.951 8.41867 274.988 8.302 275.063 8.218C275.137 8.12467 275.226 8.05467 275.329 8.008C275.441 7.96133 275.562 7.93333 275.693 7.924C275.823 7.90533 275.945 7.896 276.057 7.896C276.411 7.896 276.719 7.966 276.981 8.106C277.242 8.23667 277.387 8.49333 277.415 8.876H279.305C279.267 8.428 279.151 8.05933 278.955 7.77C278.768 7.47133 278.53 7.23333 278.241 7.056C277.951 6.87867 277.62 6.75267 277.247 6.678C276.883 6.60333 276.505 6.566 276.113 6.566C275.721 6.566 275.338 6.60333 274.965 6.678C274.591 6.74333 274.255 6.86467 273.957 7.042C273.658 7.21 273.415 7.44333 273.229 7.742C273.051 8.04067 272.963 8.42333 272.963 8.89C272.963 9.20733 273.028 9.478 273.159 9.702C273.289 9.91667 273.462 10.0987 273.677 10.248C273.891 10.388 274.134 10.5047 274.405 10.598C274.685 10.682 274.969 10.7567 275.259 10.822C275.968 10.9713 276.519 11.1207 276.911 11.27C277.312 11.4193 277.513 11.6433 277.513 11.942C277.513 12.1193 277.471 12.2687 277.387 12.39C277.303 12.502 277.195 12.5953 277.065 12.67C276.943 12.7353 276.803 12.7867 276.645 12.824C276.495 12.852 276.351 12.866 276.211 12.866C276.015 12.866 275.823 12.8427 275.637 12.796C275.459 12.7493 275.301 12.6793 275.161 12.586C275.021 12.4833 274.904 12.3573 274.811 12.208C274.727 12.0493 274.685 11.8627 274.685 11.648ZM285.536 9.604H282.302C282.312 9.464 282.34 9.30533 282.386 9.128C282.442 8.95067 282.531 8.78267 282.652 8.624C282.783 8.46533 282.951 8.33467 283.156 8.232C283.371 8.12 283.637 8.064 283.954 8.064C284.44 8.064 284.799 8.19467 285.032 8.456C285.275 8.71733 285.443 9.1 285.536 9.604ZM282.302 10.864H287.524C287.562 10.304 287.515 9.76733 287.384 9.254C287.254 8.74067 287.039 8.28333 286.74 7.882C286.451 7.48067 286.078 7.16333 285.62 6.93C285.163 6.68733 284.626 6.566 284.01 6.566C283.46 6.566 282.956 6.664 282.498 6.86C282.05 7.056 281.663 7.32667 281.336 7.672C281.01 8.008 280.758 8.40933 280.58 8.876C280.403 9.34267 280.314 9.84667 280.314 10.388C280.314 10.948 280.398 11.4613 280.566 11.928C280.744 12.3947 280.991 12.796 281.308 13.132C281.626 13.468 282.013 13.7293 282.47 13.916C282.928 14.0933 283.441 14.182 284.01 14.182C284.832 14.182 285.532 13.9953 286.11 13.622C286.689 13.2487 287.118 12.628 287.398 11.76H285.648C285.583 11.984 285.406 12.1987 285.116 12.404C284.827 12.6 284.482 12.698 284.08 12.698C283.52 12.698 283.091 12.5533 282.792 12.264C282.494 11.9747 282.33 11.508 282.302 10.864ZM221.464 25.682H219.336C219.327 26.298 219.439 26.83 219.672 27.278C219.905 27.726 220.218 28.0947 220.61 28.384C221.011 28.6733 221.469 28.8833 221.982 29.014C222.505 29.154 223.041 29.224 223.592 29.224C224.273 29.224 224.871 29.1447 225.384 28.986C225.907 28.8273 226.341 28.608 226.686 28.328C227.041 28.0387 227.307 27.698 227.484 27.306C227.661 26.914 227.75 26.4893 227.75 26.032C227.75 25.472 227.629 25.0147 227.386 24.66C227.153 24.296 226.873 24.0067 226.546 23.792C226.219 23.5773 225.888 23.4233 225.552 23.33C225.225 23.2273 224.969 23.1573 224.782 23.12C224.157 22.9613 223.648 22.8307 223.256 22.728C222.873 22.6253 222.57 22.5227 222.346 22.42C222.131 22.3173 221.987 22.2053 221.912 22.084C221.837 21.9627 221.8 21.804 221.8 21.608C221.8 21.3933 221.847 21.216 221.94 21.076C222.033 20.936 222.15 20.8193 222.29 20.726C222.439 20.6327 222.603 20.5673 222.78 20.53C222.957 20.4927 223.135 20.474 223.312 20.474C223.583 20.474 223.83 20.4973 224.054 20.544C224.287 20.5907 224.493 20.67 224.67 20.782C224.847 20.894 224.987 21.048 225.09 21.244C225.202 21.44 225.267 21.6873 225.286 21.986H227.414C227.414 21.4073 227.302 20.9173 227.078 20.516C226.863 20.1053 226.569 19.7693 226.196 19.508C225.823 19.2467 225.393 19.06 224.908 18.948C224.432 18.8267 223.933 18.766 223.41 18.766C222.962 18.766 222.514 18.8267 222.066 18.948C221.618 19.0693 221.217 19.256 220.862 19.508C220.507 19.76 220.218 20.0773 219.994 20.46C219.779 20.8333 219.672 21.2767 219.672 21.79C219.672 22.2473 219.756 22.6393 219.924 22.966C220.101 23.2833 220.33 23.5493 220.61 23.764C220.89 23.9787 221.207 24.156 221.562 24.296C221.917 24.4267 222.281 24.5387 222.654 24.632C223.018 24.7347 223.377 24.828 223.732 24.912C224.087 24.996 224.404 25.094 224.684 25.206C224.964 25.318 225.188 25.458 225.356 25.626C225.533 25.794 225.622 26.0133 225.622 26.284C225.622 26.536 225.557 26.746 225.426 26.914C225.295 27.0727 225.132 27.1987 224.936 27.292C224.74 27.3853 224.53 27.4507 224.306 27.488C224.082 27.516 223.872 27.53 223.676 27.53C223.387 27.53 223.107 27.4973 222.836 27.432C222.565 27.3573 222.327 27.25 222.122 27.11C221.926 26.9607 221.767 26.7693 221.646 26.536C221.525 26.3027 221.464 26.018 221.464 25.682ZM233.72 24.604H230.486C230.495 24.464 230.523 24.3053 230.57 24.128C230.626 23.9507 230.714 23.7827 230.836 23.624C230.966 23.4653 231.134 23.3347 231.34 23.232C231.554 23.12 231.82 23.064 232.138 23.064C232.623 23.064 232.982 23.1947 233.216 23.456C233.458 23.7173 233.626 24.1 233.72 24.604ZM230.486 25.864H235.708C235.745 25.304 235.698 24.7673 235.568 24.254C235.437 23.7407 235.222 23.2833 234.924 22.882C234.634 22.4807 234.261 22.1633 233.804 21.93C233.346 21.6873 232.81 21.566 232.194 21.566C231.643 21.566 231.139 21.664 230.682 21.86C230.234 22.056 229.846 22.3267 229.52 22.672C229.193 23.008 228.941 23.4093 228.764 23.876C228.586 24.3427 228.498 24.8467 228.498 25.388C228.498 25.948 228.582 26.4613 228.75 26.928C228.927 27.3947 229.174 27.796 229.492 28.132C229.809 28.468 230.196 28.7293 230.654 28.916C231.111 29.0933 231.624 29.182 232.194 29.182C233.015 29.182 233.715 28.9953 234.294 28.622C234.872 28.2487 235.302 27.628 235.582 26.76H233.832C233.766 26.984 233.589 27.1987 233.3 27.404C233.01 27.6 232.665 27.698 232.264 27.698C231.704 27.698 231.274 27.5533 230.976 27.264C230.677 26.9747 230.514 26.508 230.486 25.864ZM236.887 21.762V29H238.875V25.738C238.875 25.4113 238.908 25.108 238.973 24.828C239.038 24.548 239.146 24.3053 239.295 24.1C239.454 23.8853 239.659 23.7173 239.911 23.596C240.163 23.4747 240.471 23.414 240.835 23.414C240.956 23.414 241.082 23.4233 241.213 23.442C241.344 23.4513 241.456 23.4653 241.549 23.484V21.636C241.39 21.5893 241.246 21.566 241.115 21.566C240.863 21.566 240.62 21.6033 240.387 21.678C240.154 21.7527 239.934 21.86 239.729 22C239.524 22.1307 239.342 22.294 239.183 22.49C239.024 22.6767 238.898 22.882 238.805 23.106H238.777V21.762H236.887ZM246.332 29L248.782 21.762H246.808L245.282 26.704H245.254L243.728 21.762H241.642L244.12 29H246.332ZM254.474 24.604H251.24C251.249 24.464 251.277 24.3053 251.324 24.128C251.38 23.9507 251.468 23.7827 251.59 23.624C251.72 23.4653 251.888 23.3347 252.094 23.232C252.308 23.12 252.574 23.064 252.892 23.064C253.377 23.064 253.736 23.1947 253.97 23.456C254.212 23.7173 254.38 24.1 254.474 24.604ZM251.24 25.864H256.462C256.499 25.304 256.452 24.7673 256.322 24.254C256.191 23.7407 255.976 23.2833 255.678 22.882C255.388 22.4807 255.015 22.1633 254.558 21.93C254.1 21.6873 253.564 21.566 252.948 21.566C252.397 21.566 251.893 21.664 251.436 21.86C250.988 22.056 250.6 22.3267 250.274 22.672C249.947 23.008 249.695 23.4093 249.518 23.876C249.34 24.3427 249.252 24.8467 249.252 25.388C249.252 25.948 249.336 26.4613 249.504 26.928C249.681 27.3947 249.928 27.796 250.246 28.132C250.563 28.468 250.95 28.7293 251.408 28.916C251.865 29.0933 252.378 29.182 252.948 29.182C253.769 29.182 254.469 28.9953 255.048 28.622C255.626 28.2487 256.056 27.628 256.336 26.76H254.586C254.52 26.984 254.343 27.1987 254.054 27.404C253.764 27.6 253.419 27.698 253.018 27.698C252.458 27.698 252.028 27.5533 251.73 27.264C251.431 26.9747 251.268 26.508 251.24 25.864ZM257.641 21.762V29H259.629V25.738C259.629 25.4113 259.661 25.108 259.727 24.828C259.792 24.548 259.899 24.3053 260.049 24.1C260.207 23.8853 260.413 23.7173 260.665 23.596C260.917 23.4747 261.225 23.414 261.589 23.414C261.71 23.414 261.836 23.4233 261.967 23.442C262.097 23.4513 262.209 23.4653 262.303 23.484V21.636C262.144 21.5893 261.999 21.566 261.869 21.566C261.617 21.566 261.374 21.6033 261.141 21.678C260.907 21.7527 260.688 21.86 260.483 22C260.277 22.1307 260.095 22.294 259.937 22.49C259.778 22.6767 259.652 22.882 259.559 23.106H259.531V21.762H257.641Z" fill="#0E3059"/>
<line x1="202.323" y1="3" x2="202.323" y2="32" stroke="#DFE2EE"/>
<defs>
<linearGradient id="paint0_linear" x1="151.407" y1="33" x2="184.404" y2="-0.41328" gradientUnits="userSpaceOnUse">
<stop stop-color="#43C7D9"/>
<stop offset="1" stop-color="#0E5F93"/>
</linearGradient>
</defs>
</svg>
