<svg width="35" height="34" viewBox="0 0 35 34" fill="none" xmlns="http://www.w3.org/2000/svg">
<path fill-rule="evenodd" clip-rule="evenodd" d="M17.7336 0C8.14122 0 0.467285 7.55556 0.467285 17C0.467285 26.4444 8.14122 34 17.7336 34C27.3261 34 35 26.4444 35 17C35 7.55556 27.3261 0 17.7336 0ZM17.7336 13.2222C15.6407 13.2222 13.7223 14.9394 13.7223 17.1717C13.7223 19.2323 15.4663 21.1212 17.7336 21.1212C19.8265 21.1212 21.745 19.404 21.745 17.1717C21.5706 14.9394 19.8265 13.2222 17.7336 13.2222ZM17.7336 1.0303C20.5242 2.23232 23.6635 3.60606 26.1052 5.32323C28.5469 7.0404 30.9886 9.78788 33.2559 12.0202C32.9071 15.1111 32.5583 18.5455 31.5118 21.4646C30.6398 24.3838 28.8957 27.303 27.3261 30.0505C24.3611 30.5657 20.873 31.2525 17.7336 31.2525C14.5943 31.2525 11.2806 30.5657 8.14122 30.0505C6.74596 27.4747 4.82747 24.3838 3.95544 21.6364C3.0834 18.7172 2.56018 15.2828 2.21136 12.1919C4.12984 10.1313 6.57155 7.21212 9.01326 5.49495C11.455 3.60606 14.9431 2.23232 17.7336 1.0303Z" fill="white"/>
</svg>
