<svg width="191" height="34" viewBox="0 0 191 34" fill="none" xmlns="http://www.w3.org/2000/svg">
<path fill-rule="evenodd" clip-rule="evenodd" d="M173.734 0C164.141 0 156.467 7.55556 156.467 17C156.467 26.4444 164.141 34 173.734 34C183.326 34 191 26.4444 191 17C191 7.55556 183.326 0 173.734 0ZM173.734 13.2222C171.641 13.2222 169.722 14.9394 169.722 17.1717C169.722 19.2323 171.466 21.1212 173.734 21.1212C175.827 21.1212 177.745 19.404 177.745 17.1717C177.571 14.9394 175.827 13.2222 173.734 13.2222ZM173.734 1.0303C176.524 2.23232 179.664 3.60606 182.105 5.32323C184.547 7.0404 186.989 9.78788 189.256 12.0202C188.907 15.1111 188.558 18.5455 187.512 21.4646C186.64 24.3838 184.896 27.303 183.326 30.0505C180.361 30.5657 176.873 31.2525 173.734 31.2525C170.594 31.2525 167.281 30.5657 164.141 30.0505C162.746 27.4747 160.827 24.3838 159.955 21.6364C159.083 18.7172 158.56 15.2828 158.211 12.1919C160.13 10.1313 162.572 7.21212 165.013 5.49495C167.455 3.60606 170.943 2.23232 173.734 1.0303Z" fill="white"/>
<path d="M117.027 27.6784H101.68C98.1914 27.6784 96.6218 24.931 96.6218 22.3552V11.7087C96.6218 8.96127 98.7147 6.04208 102.028 6.04208H113.888C117.202 6.04208 118.946 9.13299 118.946 12.0522C118.946 14.9714 117.376 17.8906 113.888 17.8906H98.7147V22.1835C98.7147 23.7289 99.4123 25.6178 101.505 25.6178H116.853C117.376 25.6178 117.899 26.133 117.899 26.6481C118.248 27.335 117.725 27.6784 117.027 27.6784ZM98.8891 16.0017H114.063C115.981 16.0017 116.853 14.1128 116.853 12.2239C116.853 10.335 115.807 8.2744 114.063 8.2744H102.203C100.459 8.2744 98.8891 9.81986 98.8891 11.8805V16.0017ZM88.0758 27.6784H72.7279C69.2398 27.6784 67.6701 24.931 67.6701 22.3552V11.7087C67.6701 8.96127 69.763 6.04208 73.0768 6.04208H84.9365C88.2502 6.04208 89.9943 9.13299 89.9943 12.0522C89.9943 14.9714 88.4246 17.8906 84.9365 17.8906H69.763V22.1835C69.763 23.7289 70.4606 25.6178 72.5535 25.6178H87.9014C88.4246 25.6178 88.9478 26.133 88.9478 26.6481C89.1222 27.335 88.599 27.6784 88.0758 27.6784ZM69.763 16.0017H84.9365C86.8549 16.0017 87.727 14.1128 87.727 12.2239C87.727 10.335 86.6805 8.2744 84.9365 8.2744H73.0768C71.3327 8.2744 69.763 9.81986 69.763 11.8805V16.0017ZM146.851 27.6784H128.364C126.969 27.6784 125.748 26.8199 125.399 25.4461C125.05 24.0724 125.399 22.8704 126.62 22.0118C129.585 20.1229 132.55 18.234 135.515 16.1734C138.828 13.9411 142.142 11.8805 145.456 9.64814C145.979 9.3047 145.979 8.96127 145.805 8.61784C145.805 8.44612 145.456 7.93097 144.758 7.93097H126.62C126.097 7.93097 125.573 7.41582 125.573 6.90066C125.573 6.38551 126.097 5.87036 126.62 5.87036H144.584C145.979 5.87036 147.2 6.72895 147.549 8.10269C147.898 9.47642 147.549 10.6784 146.328 11.537C143.712 13.4259 140.921 15.3148 138.131 17.032C134.643 19.2643 131.154 21.4966 127.841 23.7289C127.318 24.0724 127.317 24.5875 127.317 24.931C127.317 25.1027 127.666 25.6178 128.364 25.6178H146.677C147.2 25.6178 147.723 26.133 147.723 26.6481C147.723 27.335 147.374 27.6784 146.851 27.6784ZM55.636 27.6784H39.9393C39.0673 27.6784 38.5441 26.9916 38.5441 26.3047V7.58753C38.5441 6.72895 39.2417 6.2138 39.9393 6.2138H55.636C58.0777 6.2138 60.5194 8.61784 60.5194 11.0219V23.2138C60.5194 25.4461 58.2521 27.6784 55.636 27.6784ZM40.637 8.10269V25.6178C43.0787 25.6178 45.346 25.6178 47.7877 25.6178C50.4038 25.6178 53.0199 25.6178 55.636 25.6178C57.0313 25.6178 58.4265 24.2441 58.4265 22.8704V10.8502C58.4265 9.47642 57.0313 8.10269 55.636 8.10269H40.637ZM21.1033 27.6784C20.5801 27.6784 20.0569 27.1633 20.0569 26.6481V17.8906H2.09289V26.6481C2.09289 27.1633 1.56967 27.6784 1.04645 27.6784C0.523223 27.6784 0 27.335 0 26.6481V7.07238C0 6.55723 0.523223 6.04208 1.04645 6.04208C1.56967 6.04208 2.09289 6.55723 2.09289 7.07238V15.83H20.0569V7.07238C20.0569 6.55723 20.5801 6.04208 21.1033 6.04208C21.6265 6.04208 22.1498 6.55723 22.1498 7.07238V26.6481C22.1498 27.335 21.8009 27.6784 21.1033 27.6784ZM30.5213 27.6784C29.9981 27.6784 29.4749 27.1633 29.4749 26.6481V7.07238C29.4749 6.55723 29.9981 6.04208 30.5213 6.04208C31.0445 6.04208 31.5678 6.38551 31.5678 7.07238V26.8199C31.5678 27.335 31.0445 27.6784 30.5213 27.6784Z" fill="white"/>
</svg>
