<svg width="112" height="112" viewBox="0 0 112 112" fill="none" xmlns="http://www.w3.org/2000/svg">
<path opacity="0.1" d="M40.7429 3.06465L6.45729 28.8352C3.78248 30.8424 1.78914 33.6877 0.766368 36.9584C-0.256404 40.2291 -0.255432 43.7552 0.769145 47.0253L13.8221 88.5136C14.8392 91.7526 16.8095 94.5731 19.4519 96.5724C22.0942 98.5718 25.2736 99.6479 28.5361 99.6471H71.111C74.3735 99.6479 77.5528 98.5718 80.1952 96.5724C82.8376 94.5731 84.8079 91.7526 85.825 88.5136L98.8779 47.0253C99.9025 43.7552 99.9035 40.2291 98.8807 36.9584C97.8579 33.6877 95.8646 30.8424 93.1898 28.8352L58.8572 3.06465C56.2221 1.07248 53.0526 0 49.8 0C46.5475 0 43.3779 1.07248 40.7429 3.06465Z" fill="#22446D"/>
<path d="M100.997 55.1704H33.3592C30.7062 55.1704 28.5571 53.0214 28.5571 50.3683V34.6688C28.5571 32.0158 30.7062 29.8667 33.3592 29.8667H100.988C103.641 29.8667 105.79 32.0158 105.79 34.6688V50.3588C105.8 53.0214 103.65 55.1704 100.997 55.1704Z" fill="url(#paint0_linear)"/>
<path d="M100.997 80.4739H33.3592C30.7062 80.4739 28.5571 78.3248 28.5571 75.6718V59.9818C28.5571 57.3287 30.7062 55.1797 33.3592 55.1797H100.988C103.641 55.1797 105.79 57.3287 105.79 59.9818V75.6718C105.8 78.3248 103.65 80.4739 100.997 80.4739Z" fill="url(#paint1_linear)"/>
<path d="M100.997 105.778H33.3592C30.7062 105.778 28.5571 103.629 28.5571 100.976V85.2855C28.5571 82.6325 30.7062 80.4834 33.3592 80.4834H100.988C103.641 80.4834 105.79 82.6325 105.79 85.2855V100.976C105.8 103.629 103.65 105.778 100.997 105.778Z" fill="url(#paint2_linear)"/>
<path d="M41.2044 47.1734C43.7777 47.1734 45.8638 45.0873 45.8638 42.514C45.8638 39.9406 43.7777 37.8545 41.2044 37.8545C38.631 37.8545 36.5449 39.9406 36.5449 42.514C36.5449 45.0873 38.631 47.1734 41.2044 47.1734Z" fill="#22446D"/>
<path d="M93.8086 41.8469C94.5437 41.8469 95.1396 41.251 95.1396 40.5159C95.1396 39.7807 94.5437 39.1848 93.8086 39.1848C93.0735 39.1848 92.4775 39.7807 92.4775 40.5159C92.4775 41.251 93.0735 41.8469 93.8086 41.8469Z" fill="white"/>
<path d="M88.4834 41.8469C89.2185 41.8469 89.8144 41.251 89.8144 40.5159C89.8144 39.7807 89.2185 39.1848 88.4834 39.1848C87.7483 39.1848 87.1523 39.7807 87.1523 40.5159C87.1523 41.251 87.7483 41.8469 88.4834 41.8469Z" fill="white"/>
<path d="M96.4807 45.8501C97.2158 45.8501 97.8118 45.2542 97.8118 44.519C97.8118 43.7839 97.2158 43.188 96.4807 43.188C95.7456 43.188 95.1497 43.7839 95.1497 44.519C95.1497 45.2542 95.7456 45.8501 96.4807 45.8501Z" fill="white"/>
<path d="M91.1462 45.8501C91.8813 45.8501 92.4773 45.2542 92.4773 44.519C92.4773 43.7839 91.8813 43.188 91.1462 43.188C90.4111 43.188 89.8152 43.7839 89.8152 44.519C89.8152 45.2542 90.4111 45.8501 91.1462 45.8501Z" fill="white"/>
<path d="M83.1584 41.8469C83.8936 41.8469 84.4895 41.251 84.4895 40.5159C84.4895 39.7807 83.8936 39.1848 83.1584 39.1848C82.4233 39.1848 81.8274 39.7807 81.8274 40.5159C81.8274 41.251 82.4233 41.8469 83.1584 41.8469Z" fill="white"/>
<path d="M85.8208 45.8501C86.5559 45.8501 87.1518 45.2542 87.1518 44.519C87.1518 43.7839 86.5559 43.188 85.8208 43.188C85.0857 43.188 84.4897 43.7839 84.4897 44.519C84.4897 45.2542 85.0857 45.8501 85.8208 45.8501Z" fill="white"/>
<path d="M77.8325 41.8476C78.5676 41.8476 79.1636 41.2517 79.1636 40.5166C79.1636 39.7815 78.5676 39.1855 77.8325 39.1855C77.0974 39.1855 76.5015 39.7815 76.5015 40.5166C76.5015 41.2517 77.0974 41.8476 77.8325 41.8476Z" fill="white"/>
<path d="M80.4944 45.8501C81.2295 45.8501 81.8254 45.2542 81.8254 44.519C81.8254 43.7839 81.2295 43.188 80.4944 43.188C79.7593 43.188 79.1633 43.7839 79.1633 44.519C79.1633 45.2542 79.7593 45.8501 80.4944 45.8501Z" fill="white"/>
<path d="M72.5083 41.8474C73.2434 41.8474 73.8393 41.2515 73.8393 40.5164C73.8393 39.7812 73.2434 39.1853 72.5083 39.1853C71.7732 39.1853 71.1772 39.7812 71.1772 40.5164C71.1772 41.2515 71.7732 41.8474 72.5083 41.8474Z" fill="white"/>
<path d="M75.1706 45.8501C75.9058 45.8501 76.5017 45.2542 76.5017 44.519C76.5017 43.7839 75.9058 43.188 75.1706 43.188C74.4355 43.188 73.8396 43.7839 73.8396 44.519C73.8396 45.2542 74.4355 45.8501 75.1706 45.8501Z" fill="white"/>
<path d="M93.8086 67.1509C94.5437 67.1509 95.1396 66.5549 95.1396 65.8198C95.1396 65.0847 94.5437 64.4888 93.8086 64.4888C93.0735 64.4888 92.4775 65.0847 92.4775 65.8198C92.4775 66.5549 93.0735 67.1509 93.8086 67.1509Z" fill="#22446D"/>
<path d="M88.4834 67.1509C89.2185 67.1509 89.8144 66.5549 89.8144 65.8198C89.8144 65.0847 89.2185 64.4888 88.4834 64.4888C87.7483 64.4888 87.1523 65.0847 87.1523 65.8198C87.1523 66.5549 87.7483 67.1509 88.4834 67.1509Z" fill="#22446D"/>
<path d="M96.4807 71.1548C97.2158 71.1548 97.8118 70.5588 97.8118 69.8237C97.8118 69.0886 97.2158 68.4927 96.4807 68.4927C95.7456 68.4927 95.1497 69.0886 95.1497 69.8237C95.1497 70.5588 95.7456 71.1548 96.4807 71.1548Z" fill="#22446D"/>
<path d="M91.1462 71.1548C91.8813 71.1548 92.4773 70.5588 92.4773 69.8237C92.4773 69.0886 91.8813 68.4927 91.1462 68.4927C90.4111 68.4927 89.8152 69.0886 89.8152 69.8237C89.8152 70.5588 90.4111 71.1548 91.1462 71.1548Z" fill="#22446D"/>
<path d="M83.1584 67.1509C83.8936 67.1509 84.4895 66.5549 84.4895 65.8198C84.4895 65.0847 83.8936 64.4888 83.1584 64.4888C82.4233 64.4888 81.8274 65.0847 81.8274 65.8198C81.8274 66.5549 82.4233 67.1509 83.1584 67.1509Z" fill="#22446D"/>
<path d="M85.8208 71.1548C86.5559 71.1548 87.1518 70.5588 87.1518 69.8237C87.1518 69.0886 86.5559 68.4927 85.8208 68.4927C85.0857 68.4927 84.4897 69.0886 84.4897 69.8237C84.4897 70.5588 85.0857 71.1548 85.8208 71.1548Z" fill="#22446D"/>
<path d="M77.8325 67.1509C78.5676 67.1509 79.1636 66.5549 79.1636 65.8198C79.1636 65.0847 78.5676 64.4888 77.8325 64.4888C77.0974 64.4888 76.5015 65.0847 76.5015 65.8198C76.5015 66.5549 77.0974 67.1509 77.8325 67.1509Z" fill="#22446D"/>
<path d="M80.4944 71.1535C81.2295 71.1535 81.8254 70.5576 81.8254 69.8225C81.8254 69.0874 81.2295 68.4915 80.4944 68.4915C79.7593 68.4915 79.1633 69.0874 79.1633 69.8225C79.1633 70.5576 79.7593 71.1535 80.4944 71.1535Z" fill="#22446D"/>
<path d="M72.5083 67.1509C73.2434 67.1509 73.8393 66.5549 73.8393 65.8198C73.8393 65.0847 73.2434 64.4888 72.5083 64.4888C71.7732 64.4888 71.1772 65.0847 71.1772 65.8198C71.1772 66.5549 71.7732 67.1509 72.5083 67.1509Z" fill="#22446D"/>
<path d="M75.1706 71.1535C75.9058 71.1535 76.5017 70.5576 76.5017 69.8225C76.5017 69.0874 75.9058 68.4915 75.1706 68.4915C74.4355 68.4915 73.8396 69.0874 73.8396 69.8225C73.8396 70.5576 74.4355 71.1535 75.1706 71.1535Z" fill="#22446D"/>
<path d="M41.2044 97.7813C43.7777 97.7813 45.8638 95.6952 45.8638 93.1219C45.8638 90.5485 43.7777 88.4624 41.2044 88.4624C38.631 88.4624 36.5449 90.5485 36.5449 93.1219C36.5449 95.6952 38.631 97.7813 41.2044 97.7813Z" fill="#22446D"/>
<path d="M93.8086 92.4556C94.5437 92.4556 95.1396 91.8596 95.1396 91.1245C95.1396 90.3894 94.5437 89.7935 93.8086 89.7935C93.0735 89.7935 92.4775 90.3894 92.4775 91.1245C92.4775 91.8596 93.0735 92.4556 93.8086 92.4556Z" fill="white"/>
<path d="M88.4834 92.4556C89.2185 92.4556 89.8144 91.8596 89.8144 91.1245C89.8144 90.3894 89.2185 89.7935 88.4834 89.7935C87.7483 89.7935 87.1523 90.3894 87.1523 91.1245C87.1523 91.8596 87.7483 92.4556 88.4834 92.4556Z" fill="white"/>
<path d="M96.4807 96.4499C97.2158 96.4499 97.8118 95.854 97.8118 95.1189C97.8118 94.3838 97.2158 93.7878 96.4807 93.7878C95.7456 93.7878 95.1497 94.3838 95.1497 95.1189C95.1497 95.854 95.7456 96.4499 96.4807 96.4499Z" fill="white"/>
<path d="M91.1462 96.4499C91.8813 96.4499 92.4773 95.854 92.4773 95.1189C92.4773 94.3838 91.8813 93.7878 91.1462 93.7878C90.4111 93.7878 89.8152 94.3838 89.8152 95.1189C89.8152 95.854 90.4111 96.4499 91.1462 96.4499Z" fill="white"/>
<path d="M83.1584 92.4556C83.8936 92.4556 84.4895 91.8596 84.4895 91.1245C84.4895 90.3894 83.8936 89.7935 83.1584 89.7935C82.4233 89.7935 81.8274 90.3894 81.8274 91.1245C81.8274 91.8596 82.4233 92.4556 83.1584 92.4556Z" fill="white"/>
<path d="M85.8208 96.4499C86.5559 96.4499 87.1518 95.854 87.1518 95.1189C87.1518 94.3838 86.5559 93.7878 85.8208 93.7878C85.0857 93.7878 84.4897 94.3838 84.4897 95.1189C84.4897 95.854 85.0857 96.4499 85.8208 96.4499Z" fill="white"/>
<path d="M77.8325 92.4556C78.5676 92.4556 79.1636 91.8596 79.1636 91.1245C79.1636 90.3894 78.5676 89.7935 77.8325 89.7935C77.0974 89.7935 76.5015 90.3894 76.5015 91.1245C76.5015 91.8596 77.0974 92.4556 77.8325 92.4556Z" fill="white"/>
<path d="M80.4944 96.449C81.2295 96.449 81.8254 95.853 81.8254 95.1179C81.8254 94.3828 81.2295 93.7869 80.4944 93.7869C79.7593 93.7869 79.1633 94.3828 79.1633 95.1179C79.1633 95.853 79.7593 96.449 80.4944 96.449Z" fill="white"/>
<path d="M72.5083 92.4548C73.2434 92.4548 73.8393 91.8589 73.8393 91.1238C73.8393 90.3886 73.2434 89.7927 72.5083 89.7927C71.7732 89.7927 71.1772 90.3886 71.1772 91.1238C71.1772 91.8589 71.7732 92.4548 72.5083 92.4548Z" fill="white"/>
<path d="M75.1706 96.449C75.9058 96.449 76.5017 95.853 76.5017 95.1179C76.5017 94.3828 75.9058 93.7869 75.1706 93.7869C74.4355 93.7869 73.8396 94.3828 73.8396 95.1179C73.8396 95.853 74.4355 96.449 75.1706 96.449Z" fill="white"/>
<path fill-rule="evenodd" clip-rule="evenodd" d="M41.214 60.02C36.9063 60.02 33.407 63.5099 33.407 67.827C33.407 72.1346 36.9063 75.634 41.214 75.634C45.5216 75.634 49.0209 72.1441 49.0209 67.827C49.0114 63.5099 45.5216 60.02 41.214 60.02ZM41.214 66.0488C40.2345 66.0488 39.4453 66.838 39.4453 67.8175C39.4453 68.7969 40.2345 69.5862 41.214 69.5862C42.1934 69.5862 42.9826 68.7969 42.9826 67.8175C42.9826 66.8476 42.1839 66.0488 41.214 66.0488ZM41.214 60.4955C42.4406 61.047 43.8955 61.6651 45.0176 62.4924C46.1492 63.3102 47.2522 64.5654 48.2031 65.5924C48.032 66.9997 47.8608 68.5687 47.4329 69.8905C47.005 71.2122 46.2252 72.553 45.5311 73.8082C44.1808 74.0554 42.5833 74.3692 41.1949 74.3692C39.8066 74.3692 38.2566 74.0554 36.8873 73.8082C36.2407 72.6386 35.4134 71.2408 34.9855 69.919C34.5576 68.5972 34.3769 66.9997 34.2153 65.5828C35.0521 64.6319 36.1551 63.3292 37.2772 62.5114C38.3993 61.7031 39.9492 61.0565 41.214 60.4955Z" fill="white"/>
<defs>
<linearGradient id="paint0_linear" x1="28.5571" y1="55.1704" x2="43.5303" y2="9.46864" gradientUnits="userSpaceOnUse">
<stop stop-color="#43C7D9"/>
<stop offset="1" stop-color="#0E5F93"/>
</linearGradient>
<linearGradient id="paint1_linear" x1="105.79" y1="55.1797" x2="40.1957" y2="98.2139" gradientUnits="userSpaceOnUse">
<stop stop-color="#43C7D9"/>
<stop offset="1" stop-color="#0E5F93"/>
</linearGradient>
<linearGradient id="paint2_linear" x1="28.5571" y1="105.778" x2="43.5202" y2="60.0897" gradientUnits="userSpaceOnUse">
<stop stop-color="#43C7D9"/>
<stop offset="1" stop-color="#0E5F93"/>
</linearGradient>
</defs>
</svg>
