<svg width="112" height="112" viewBox="0 0 112 112" fill="none" xmlns="http://www.w3.org/2000/svg">
<path opacity="0.1" d="M40.7429 3.06465L6.45729 28.8352C3.78248 30.8424 1.78914 33.6877 0.766368 36.9584C-0.256404 40.2291 -0.255432 43.7552 0.769145 47.0253L13.8221 88.5136C14.8392 91.7526 16.8095 94.5731 19.4519 96.5724C22.0942 98.5718 25.2736 99.6479 28.5361 99.6471H71.111C74.3735 99.6479 77.5528 98.5718 80.1952 96.5724C82.8376 94.5731 84.8079 91.7526 85.825 88.5136L98.8779 47.0253C99.9025 43.7552 99.9035 40.2291 98.8807 36.9584C97.8579 33.6877 95.8646 30.8424 93.1898 28.8352L58.8572 3.06465C56.2221 1.07248 53.0526 0 49.8 0C46.5475 0 43.3779 1.07248 40.7429 3.06465V3.06465Z" fill="#22446D"/>
<path d="M71.1253 105.031C67.6006 108.58 61.8688 108.605 58.3194 105.08L24.9171 71.9495C21.3677 68.4248 21.3347 62.6931 24.8594 59.1354L57.99 25.7331C61.5065 22.1837 67.2465 22.1672 70.7877 25.6837L104.198 58.8142C107.748 62.3307 107.772 68.0625 104.248 71.6201L71.1253 105.031Z" fill="url(#paint0_linear)"/>
<path d="M69.725 48.1911C66.6779 51.2711 61.7038 51.2876 58.6403 48.2406C55.5603 45.1935 55.5438 40.2194 58.5909 37.1476C61.6379 34.0676 66.6121 34.0511 69.6838 37.0982C72.7556 40.1453 72.7803 45.1111 69.725 48.1911Z" fill="#F4FEFF"/>
<path d="M69.1074 97.2735C69.1074 99.7853 67.0733 101.819 64.5615 101.819C62.0497 101.819 60.0156 99.7853 60.0156 97.2735L61.4568 64.8017C61.4568 62.29 62.0497 60.2559 64.5615 60.2559C67.0733 60.2559 67.625 62.29 67.625 64.8017L69.1074 97.2735Z" fill="url(#paint1_linear)"/>
<defs>
<linearGradient id="paint0_linear" x1="22.2354" y1="107.708" x2="106.885" y2="23.0678" gradientUnits="userSpaceOnUse">
<stop stop-color="#43C7D9"/>
<stop offset="1" stop-color="#0E5F93"/>
</linearGradient>
<linearGradient id="paint1_linear" x1="64.5615" y1="60.2559" x2="64.5615" y2="101.819" gradientUnits="userSpaceOnUse">
<stop stop-color="#0E3059"/>
<stop offset="1" stop-color="#081C33"/>
</linearGradient>
</defs>
</svg>
