<svg width="112" height="112" viewBox="0 0 112 112" fill="none" xmlns="http://www.w3.org/2000/svg">
<path opacity="0.1" d="M40.7429 3.06465L6.45729 28.8352C3.78248 30.8424 1.78914 33.6877 0.766368 36.9584C-0.256404 40.2291 -0.255432 43.7552 0.769145 47.0253L13.8221 88.5136C14.8392 91.7526 16.8095 94.5731 19.4519 96.5724C22.0942 98.5718 25.2736 99.6479 28.5361 99.6471H71.111C74.3735 99.6479 77.5528 98.5718 80.1952 96.5724C82.8376 94.5731 84.8079 91.7526 85.825 88.5136L98.8779 47.0253C99.9025 43.7552 99.9035 40.2291 98.8807 36.9584C97.8579 33.6877 95.8646 30.8424 93.1898 28.8352L58.8572 3.06465C56.2221 1.07248 53.0526 0 49.8 0C46.5475 0 43.3779 1.07248 40.7429 3.06465V3.06465Z" fill="#22446D"/>
<g clip-path="url(#clip0)">
<path d="M100.478 87.8147L86.3777 80.7692C84.5542 79.8575 83.403 77.9971 83.403 75.9617V70.4266C83.799 69.9754 84.2503 69.3951 84.7384 68.7136C86.6632 65.9967 88.1092 63.0128 89.1222 59.8814C90.9274 59.3289 92.2628 57.6527 92.2628 55.6726V49.7691C92.2628 48.4705 91.6826 47.3101 90.7892 46.4996V37.9622C90.7892 37.9622 92.5391 24.6817 74.5524 24.6817C56.5657 24.6632 58.3155 37.9437 58.3155 37.9437V46.4812C57.413 47.2917 56.842 48.4521 56.842 49.7507V55.6542C56.842 57.2106 57.6616 58.5829 58.8865 59.3657C60.3601 65.7941 64.2282 70.4082 64.2282 70.4082V75.8051C64.2282 77.776 63.1507 79.5812 61.4284 80.5298L48.2584 87.7134C44.4548 89.7856 42.0879 93.7734 42.0879 98.1112V102.891H107.035V98.3967C107.026 93.9208 104.493 89.8224 100.478 87.8147Z" fill="url(#paint0_linear)"/>
<path d="M48.2489 87.7222L57.0258 82.9331C56.9798 82.8871 57.0166 82.8687 57.1179 82.8779L61.4097 80.5386C63.1411 79.5992 64.2095 77.7849 64.2095 75.814V70.417C64.2095 70.417 62.6438 68.5383 61.1242 65.5082C60.9216 65.1122 60.7282 64.6978 60.5348 64.2649C60.5071 64.2004 60.4795 64.1452 60.4519 64.0899C60.2585 63.6387 60.0651 63.1782 59.8809 62.6993C59.8717 62.6716 59.8625 62.6348 59.844 62.6072C59.6875 62.1835 59.5401 61.7414 59.3928 61.2809C59.3559 61.1612 59.3191 61.0323 59.2822 60.9126C59.1349 60.4152 58.9967 59.9087 58.8678 59.3837C57.6429 58.5917 56.8232 57.2286 56.8232 55.6722V49.7687C56.8232 48.4701 57.4034 47.3097 58.2968 46.4992V38.1644C56.2154 36.5435 52.9827 35.0146 47.9634 35.0146C33.8448 35.0146 33.2001 46.8216 33.2001 46.8216V54.1986C32.4265 54.8986 31.7266 55.9024 31.7266 57.026V62.1282C31.7266 63.4729 32.4357 64.6517 33.4856 65.3332C34.7566 70.8775 39.0391 74.8746 39.0391 74.8746V79.5347C39.0391 81.2293 38.109 82.795 36.617 83.6147L26.7441 89.7944C23.4562 91.5811 21.4116 95.0256 21.4116 98.7648V102.891H42.0784V98.1109C42.0784 93.7823 44.4453 89.7944 48.2489 87.7222Z" fill="url(#paint1_linear)"/>
</g>
<defs>
<linearGradient id="paint0_linear" x1="107.035" y1="24.6816" x2="30.5675" y2="38.3258" gradientUnits="userSpaceOnUse">
<stop stop-color="#43C7D9"/>
<stop offset="1" stop-color="#0E5F93"/>
</linearGradient>
<linearGradient id="paint1_linear" x1="42.8105" y1="35.0146" x2="42.8105" y2="102.891" gradientUnits="userSpaceOnUse">
<stop stop-color="#0E3059"/>
<stop offset="1" stop-color="#081C33"/>
</linearGradient>
<clipPath id="clip0">
<rect width="85.6141" height="78.2371" fill="white" transform="translate(21.4116 24.6631)"/>
</clipPath>
</defs>
</svg>
