<svg width="113" height="112" viewBox="0 0 113 112" fill="none" xmlns="http://www.w3.org/2000/svg">
<path opacity="0.1" d="M40.7429 3.06465L6.45729 28.8352C3.78248 30.8424 1.78914 33.6877 0.766368 36.9584C-0.256404 40.2291 -0.255432 43.7552 0.769145 47.0253L13.8221 88.5136C14.8392 91.7526 16.8095 94.5731 19.4519 96.5724C22.0942 98.5718 25.2736 99.6479 28.5361 99.6471H71.111C74.3735 99.6479 77.5528 98.5718 80.1952 96.5724C82.8376 94.5731 84.8079 91.7526 85.825 88.5136L98.8779 47.0253C99.9025 43.7552 99.9035 40.2291 98.8807 36.9584C97.8579 33.6877 95.8646 30.8424 93.1898 28.8352L58.8572 3.06465C56.2221 1.07248 53.0526 0 49.8 0C46.5475 0 43.3779 1.07248 40.7429 3.06465V3.06465Z" fill="#22446D"/>
<path d="M58.5859 65.2057H75.6416H91.6939H108.75V63.0041V28.3354C108.75 27.1371 107.858 26.1338 106.743 26.1338H60.5925C59.4777 26.1338 58.5859 27.1092 58.5859 28.3354V63.0319V65.2057V65.2057Z" fill="white"/>
<path d="M106.632 28.2797C106.632 28.2797 106.604 28.3075 106.632 28.3354V63.0319V63.0877H91.6939H75.6416H60.704V63.0319L60.7318 28.2797H106.632ZM106.743 26.1338H60.5925C59.4777 26.1338 58.5859 27.1092 58.5859 28.3354V63.0319V65.2336H75.6416H91.6939H108.75V63.0319V28.3354C108.75 27.1092 107.858 26.1338 106.743 26.1338Z" fill="url(#paint0_linear)"/>
<path d="M91.4709 59.9102V62.0282H75.3628V59.9102H54.2383V63.0872C54.2383 64.2577 55.1301 65.2052 56.2448 65.2052H110.589C111.704 65.2052 112.595 64.2577 112.595 63.0872V59.9102H91.4709Z" fill="url(#paint1_linear)"/>
<path d="M46.1279 76.5473H65.1065H82.9703H101.949V74.1228V35.5525C101.949 34.2148 100.946 33.1279 99.7194 33.1279H48.3574C47.1312 33.1279 46.1279 34.2148 46.1279 35.5525V74.1228V76.5473Z" fill="white"/>
<path d="M99.5522 35.4704C99.5522 35.4704 99.5243 35.4983 99.5243 35.5261V74.0964V74.1521H82.9146H65.0508H48.4689V74.0964L48.4968 35.4425H99.5522V35.4704ZM99.6916 33.1016H48.3574C47.1312 33.1016 46.1279 34.1884 46.1279 35.5261V74.0964V76.521H65.1065H82.9703H101.949V74.0964V35.554C101.921 34.1884 100.918 33.1016 99.6916 33.1016Z" fill="url(#paint2_linear)"/>
<path d="M82.721 70.6689V73.0378H64.8014V70.6689H41.3081V74.2083C41.3081 75.5181 42.3114 76.5771 43.5376 76.5771H103.985C105.211 76.5771 106.214 75.5181 106.214 74.2083V70.6689H82.721V70.6689Z" fill="url(#paint3_linear)"/>
<path d="M24.6133 90.8443H46.9918H68.0606H90.4391V87.9738V42.4642C90.4391 40.8757 89.2687 39.5938 87.8195 39.5938H27.2608C25.8116 39.5938 24.6411 40.8757 24.6411 42.4642V87.9738V90.8443H24.6133Z" fill="white"/>
<path d="M87.6214 42.3806C87.6214 42.4085 87.6214 42.4364 87.6214 42.4642V87.9738V88.0574H68.0576H46.9889H27.4251V87.9738V42.4642C27.4251 42.4364 27.4251 42.4085 27.4251 42.3806H87.6214ZM87.7886 39.5938H27.2578C25.8087 39.5938 24.6382 40.8757 24.6382 42.4642V87.9738V90.8443H47.0167H68.0855H90.464V87.9738V42.4642C90.4362 40.8757 89.2657 39.5938 87.7886 39.5938Z" fill="url(#paint4_linear)"/>
<path d="M67.782 83.877V86.6638H46.6576V83.877H18.9282V88.0573C18.9282 89.59 20.0987 90.8441 21.5757 90.8441H92.8639C94.313 90.8441 95.5114 89.59 95.5114 88.0573V83.877H67.782Z" fill="url(#paint5_linear)"/>
<path d="M58.9467 74.0123C57.9991 74.9599 56.4942 74.9599 55.5467 74.0123L46.6566 65.2058C45.709 64.2583 45.709 62.7534 46.6287 61.8058L55.4352 52.9157C56.3827 51.9682 57.8876 51.9682 58.8352 52.9157L67.7253 61.7222C68.6728 62.6698 68.6728 64.1747 67.7253 65.1222L58.9467 74.0123Z" fill="url(#paint6_linear)"/>
<path d="M58.5844 58.9067C57.7762 59.7149 56.4664 59.7427 55.6303 58.9067C54.8221 58.0985 54.7943 56.7886 55.6303 55.9526C56.4385 55.1444 57.7483 55.1165 58.5844 55.9526C59.3926 56.7608 59.3926 58.0985 58.5844 58.9067Z" fill="white"/>
<path d="M58.4177 71.95C58.4177 72.6188 57.8882 73.1483 57.2193 73.1483C56.5505 73.1483 56.021 72.6188 56.021 71.95L56.4112 63.3107C56.4112 62.6418 56.5784 62.1123 57.2472 62.1123C57.9161 62.1123 58.0554 62.6418 58.0554 63.3107L58.4177 71.95Z" fill="#051E39"/>
<defs>
<linearGradient id="paint0_linear" x1="58.5773" y1="45.6742" x2="108.755" y2="45.6742" gradientUnits="userSpaceOnUse">
<stop stop-color="#126093"/>
<stop offset="1" stop-color="#49C4D7"/>
</linearGradient>
<linearGradient id="paint1_linear" x1="109.749" y1="57.3833" x2="61.8122" y2="66.4941" gradientUnits="userSpaceOnUse">
<stop stop-color="#126093"/>
<stop offset="1" stop-color="#49C4D7"/>
</linearGradient>
<linearGradient id="paint2_linear" x1="46.1235" y1="54.8341" x2="101.918" y2="54.8341" gradientUnits="userSpaceOnUse">
<stop stop-color="#126093"/>
<stop offset="1" stop-color="#49C4D7"/>
</linearGradient>
<linearGradient id="paint3_linear" x1="103.024" y1="67.8548" x2="49.7219" y2="77.9853" gradientUnits="userSpaceOnUse">
<stop stop-color="#126093"/>
<stop offset="1" stop-color="#49C4D7"/>
</linearGradient>
<linearGradient id="paint4_linear" x1="24.6201" y1="65.214" x2="90.432" y2="65.214" gradientUnits="userSpaceOnUse">
<stop stop-color="#126093"/>
<stop offset="1" stop-color="#49C4D7"/>
</linearGradient>
<linearGradient id="paint5_linear" x1="91.7388" y1="80.572" x2="28.8662" y2="92.5213" gradientUnits="userSpaceOnUse">
<stop stop-color="#126093"/>
<stop offset="1" stop-color="#49C4D7"/>
</linearGradient>
<linearGradient id="paint6_linear" x1="45.9657" y1="63.4741" x2="68.4582" y2="63.4741" gradientUnits="userSpaceOnUse">
<stop stop-color="#126093"/>
<stop offset="1" stop-color="#49C4D7"/>
</linearGradient>
</defs>
</svg>
