<svg width="24" height="24" viewBox="0 0 24 24" fill="none" xmlns="http://www.w3.org/2000/svg">
<path fill-rule="evenodd" clip-rule="evenodd" d="M13.5778 21.3706C12.7402 22.2065 11.3962 22.2065 10.5586 21.39L2.63065 13.5553C1.79306 12.7193 1.79306 11.3779 2.61117 10.5225L10.4417 2.62942C11.2793 1.79346 12.6233 1.79346 13.4609 2.60998L21.3694 10.4253C22.2069 11.2612 22.2069 12.6027 21.3888 13.4386L13.5778 21.3706ZM13.3186 7.55899C12.5979 8.27831 11.4291 8.29775 10.6889 7.57843C9.96822 6.85911 9.94874 5.69265 10.6695 4.95389C11.3902 4.23457 12.5589 4.21513 13.2991 4.93445C14.0393 5.67321 14.0588 6.83967 13.3186 7.55899ZM11.967 20.404C12.5514 20.404 13.0383 19.9374 13.0383 19.3348L12.7072 11.675C12.7072 11.0918 12.5709 10.6058 11.9865 10.6058C11.3826 10.6058 11.2463 11.0918 11.2463 11.675L10.8957 19.3348C10.8957 19.918 11.3826 20.404 11.967 20.404Z" fill="white"/>
</svg>
